<?xml version="1.0" encoding="UTF-8"?>
<svg id="Capa_1" xmlns="http://www.w3.org/2000/svg" version="1.1" viewBox="0 0 1010.6 797.7">
  <!-- Generator: Adobe Illustrator 30.5.1, SVG Export Plug-In . SVG Version: 2.1.4 Build 3)  -->
  <defs>
    <style>
      .st0 {
        fill: #f1f1f1;
      }
    </style>
  </defs>
  <g>
    <path class="st0" d="M728.1,332.9c8.6-39.6,13.5-74.4,11.6-111.2,0,0,0,0,0-.1C734,91.3,642,0,505.3,0s-228.8,91.1-234.5,221.6t0,0c-1.7,35.5,2.5,68.9,11.7,111.2h0c20.2,96.5,59.6,204.8,100.4,292.4,33.5,1.3,70.5,2,110.8,2-94-136-186.4-443.7,11.7-443.7s105.8,307.7,11.7,443.7c40.3,0,77.2-.8,110.8-2,40.9-87.8,80.2-196.1,100.4-292.4h0Z"/>
    <path class="st0" d="M148,434.2c-14.4-92.8,55-129.4,116.6-109.1-8-40.6-12.7-76.5-8.7-117.9-25.2-21.6-63.2-42.1-113.6-42.1S-21.5,196.5,4.2,350.2c16.9,101.5,110.8,197.4,172.6,251l27.5,5.7c20,5.1,47.4,9.3,81.5,12.5-46.9-38-126.5-112.1-137.8-185.2Z"/>
    <path class="st0" d="M868.3,165.1c-50.4,0-88.4,20.5-113.6,42.1,2.6,27.2,1.6,56-3,85.7-1.7,10.7-3.6,21.5-5.7,32.2,10.2-3.4,21.7-5.4,34.3-5.4,42.6,0,95.1,32,82.3,114.5-11.3,73-90.9,147.2-137.9,185.2,59.5-5.7,109-18.2,109-18.2,61.8-53.5,155.7-149.4,172.6-251,25.6-153.7-72.6-185.1-138.1-185.1Z"/>
  </g>
  <g>
    <path class="st0" d="M192,675.6c1,.6,1.7,1.3,2.2,2.3.5.9.4,2-.3,3.3l-14.7,20.9c-.6,1-1.3,1.6-2,1.7-.7.1-1.6,0-2.7-.7-2.8-2.2-6-3.8-9.4-5-3.4-1.2-7.1-1.8-10.9-1.8s-9.2.9-13.2,2.7c-4,1.8-7.5,4.3-10.4,7.4-2.9,3.1-5.2,6.8-6.8,11-1.6,4.2-2.4,8.7-2.4,13.4s.8,9.2,2.4,13.4c1.6,4.2,3.9,7.8,6.8,10.9s6.4,5.6,10.4,7.4c4,1.8,8.4,2.7,13.2,2.7s7.5-.6,11-1.8c3.5-1.2,6.7-2.9,9.5-5,1-.6,1.9-.9,2.6-.8.7.1,1.4.6,2.1,1.6l14.9,21.4c.6,1.3.7,2.4.3,3.2-.5.9-1.2,1.6-2.2,2.2-5.5,3.7-11.3,6.5-17.7,8.5-6.3,2-13,3-19.9,3s-12.1-.8-17.8-2.4c-5.7-1.6-11-3.8-15.9-6.7-4.9-2.9-9.4-6.4-13.5-10.4-4-4-7.5-8.5-10.4-13.4-2.9-4.9-5.1-10.2-6.7-15.9-1.6-5.7-2.4-11.6-2.4-17.7s.8-12.1,2.4-17.7c1.6-5.7,3.8-11,6.7-16,2.9-5,6.4-9.5,10.4-13.6,4-4.1,8.5-7.5,13.5-10.4,4.9-2.9,10.3-5.1,15.9-6.7,5.7-1.6,11.6-2.4,17.8-2.4s13.6,1,19.8,2.9c6.2,1.9,12,4.7,17.5,8.4Z"/>
    <path class="st0" d="M192.7,731.1c0-6.2.8-12.1,2.4-17.7,1.6-5.7,3.8-11,6.7-16,2.9-5,6.4-9.5,10.4-13.6,4-4.1,8.5-7.5,13.5-10.4,4.9-2.9,10.3-5.1,15.9-6.7,5.7-1.6,11.6-2.4,17.8-2.4s12,.8,17.7,2.4c5.7,1.6,11,3.8,16,6.7,4.9,2.9,9.5,6.4,13.5,10.4,4.1,4.1,7.5,8.6,10.4,13.6,2.9,5,5.1,10.3,6.7,16,1.6,5.7,2.4,11.6,2.4,17.7s-.8,12.1-2.4,17.7c-1.6,5.7-3.8,11-6.7,15.9-2.9,4.9-6.4,9.4-10.4,13.4-4.1,4-8.6,7.5-13.5,10.4-4.9,2.9-10.3,5.1-16,6.7-5.7,1.6-11.6,2.4-17.7,2.4s-12.1-.8-17.8-2.4c-5.7-1.6-11-3.8-15.9-6.7-4.9-2.9-9.4-6.4-13.5-10.4-4.1-4-7.5-8.5-10.4-13.4-2.9-4.9-5.1-10.2-6.7-15.9-1.6-5.7-2.4-11.6-2.4-17.7ZM226.5,731c0,4.8.8,9.3,2.4,13.5,1.6,4.2,3.9,7.8,6.8,11,2.9,3.1,6.4,5.5,10.4,7.3,4,1.8,8.4,2.7,13.2,2.7s9.2-.9,13.3-2.7c4-1.8,7.5-4.2,10.5-7.3,2.9-3.1,5.2-6.8,6.8-11,1.6-4.2,2.4-8.7,2.4-13.5s-.8-9.3-2.4-13.5c-1.6-4.2-3.9-7.9-6.8-11-2.9-3.1-6.4-5.6-10.5-7.4s-8.5-2.7-13.3-2.7-9.2.9-13.2,2.7-7.5,4.3-10.4,7.4c-2.9,3.1-5.2,6.8-6.8,11-1.6,4.2-2.4,8.7-2.4,13.5Z"/>
    <path class="st0" d="M337.5,670.1c0-1,.3-1.9,1-2.7.6-.8,1.6-1.1,2.9-1.1h28.5c.8,0,1.7.2,2.5.6.9.4,1.6,1.1,2.3,2.1,7.4,11.9,14.7,23.7,22,35.2,7.3,11.6,14.6,23.3,22.1,35.2v-69.9c.2-1.1.7-1.9,1.4-2.4.7-.6,1.5-.9,2.4-.9h24.9c1.2,0,2.2.3,3.1,1,.8.7,1.2,1.6,1.2,2.8v122.3c0,1.2-.4,2-1,2.6-.7.6-1.7.8-2.9.8h-27.8c-.8,0-1.4-.3-2-.8-.6-.5-1.2-1.2-1.8-2.1-7.7-12.8-15.4-25.4-22.9-37.9-7.6-12.5-15.2-25.1-23-37.9v74.9c0,1.3-.3,2.2-.9,2.9-.6.6-1.6,1-3.1,1h-24.8c-1.3,0-2.3-.4-2.9-1.1-.6-.7-.9-1.6-.9-2.7v-121.9Z"/>
    <path class="st0" d="M582,731.1c0,6.2-.8,12-2.4,17.6-1.6,5.6-3.8,10.7-6.7,15.5-2.9,4.8-6.4,9.1-10.4,13-4,3.9-8.5,7.2-13.4,10-4.9,2.7-10.2,4.8-15.9,6.3-5.7,1.5-11.6,2.2-17.7,2.2h-43c-1,0-2-.2-2.8-.7-.8-.5-1.2-1.5-1.2-3v-121.8c0-1.2.3-2.2,1-3,.7-.8,1.7-1.1,3-1.1h43c6.1,0,12,.8,17.7,2.3,5.7,1.5,11,3.7,15.9,6.4,4.9,2.8,9.4,6.1,13.5,10,4.1,3.9,7.5,8.3,10.4,13.1,2.9,4.8,5.1,10,6.7,15.6,1.6,5.6,2.4,11.4,2.4,17.5ZM502.2,697.4v67.1h7.3c1.3,0,2.6,0,3.9-.1,1.3,0,2.6-.2,3.8-.3,4.4-.3,8.4-1.4,12.2-3.2,3.8-1.8,7.1-4.1,9.9-7,2.8-2.9,5-6.3,6.6-10.2,1.6-3.9,2.4-8.1,2.4-12.7s-.9-9.4-2.8-13.5c-1.8-4.1-4.3-7.6-7.5-10.6-3.1-3-6.8-5.3-11-7-4.2-1.7-8.7-2.5-13.5-2.5h-11.5Z"/>
    <path class="st0" d="M594.5,670.2c0-1.2.3-2.2,1-2.9.7-.7,1.6-1.1,2.8-1.1h86.5c1.3,0,2.3.4,3,1.1.7.8,1,1.8,1,3v21.6c0,1-.3,1.9-1,2.8-.7.9-1.7,1.3-3,1.3h-56.5v21.6h43.6c1.1,0,2,.3,2.7.8.7.5,1.1,1.4,1.1,2.6v18.8c0,.8-.3,1.6-1,2.3-.6.8-1.6,1.1-2.8,1.1h-43.7v22.3h58.6c2.6,0,3.9,1.3,3.9,4v21.9c0,.6-.2,1.1-.7,1.6-.2,1.6-1.4,2.4-3.6,2.4h-88.2c-1.2,0-2.1-.3-2.8-.9-.7-.6-1-1.6-1-2.8v-121.8Z"/>
    <path class="st0" d="M718.2,753.9c1,.8,2.3,1.9,3.8,3.3s3.3,2.7,5.3,4.1c3,2,5.9,3.5,8.8,4.6,2.9,1.1,6,1.7,9.2,1.7s5.4-.3,7.5-1c2-.7,3.6-1.5,4.7-2.7,1.2-1.1,2-2.4,2.5-3.8.5-1.5.7-3,.7-4.6s-.7-3.4-2-4.8c-1.4-1.4-3-2.7-5-3.8-2-1.1-4-2.1-6.2-2.8-2.2-.8-4-1.4-5.6-2-7-2.4-13.1-5.1-18.3-7.9-5.2-2.8-9.6-5.9-13.1-9.4-3.5-3.4-6.1-7.3-7.9-11.4-1.7-4.2-2.6-8.8-2.6-13.9s1.1-10.3,3.3-14.7c2.2-4.4,5.3-8.2,9.3-11.3,4-3.1,8.9-5.6,14.6-7.3,5.7-1.7,12.1-2.6,19.1-2.6s10.4.6,15.2,1.8c4.9,1.2,9.6,3.1,14.4,5.7,2,1.2,3.8,2.4,5.6,3.6,1.8,1.3,3.3,2.5,4.7,3.6,1.3,1.2,2.4,2.3,3.2,3.3.8,1,1.2,1.9,1.2,2.7s-.2,1.5-.6,2.1c-.4.6-.9,1.4-1.7,2.2l-13.3,14.2c-1,1-2,1.5-3,1.5s-1.5-.2-2.2-.7c-.7-.5-1.4-1-2.2-1.8l-.8-.7c-1.2-1-2.5-2-3.9-3.1-1.4-1-3-2-4.6-2.8-1.6-.8-3.3-1.5-5.1-2.1-1.8-.6-3.6-.8-5.5-.8s-3.7.2-5.4.5c-1.7.3-3.2.8-4.4,1.5-1.3.7-2.3,1.6-3.1,2.7-.8,1.1-1.1,2.5-1.1,4.1s.4,3,1.2,4.2c.8,1.2,2,2.3,3.7,3.3,1.6,1,3.6,2,6.1,2.9,2.4.9,5.2,1.9,8.4,2.9,6.2,2,11.8,4.2,17,6.4,5.2,2.2,9.7,4.9,13.5,7.9,3.8,3,6.7,6.7,8.9,10.9,2.1,4.3,3.2,9.4,3.2,15.4s-1.3,12.2-3.9,17.4c-2.6,5.2-6.2,9.6-10.8,13.3-4.6,3.7-9.9,6.5-16.1,8.5-6.2,2-12.8,3-19.9,3s-13.3-1.2-19.7-3.6c-6.5-2.4-12.5-5.6-18.1-9.6-2.3-1.7-4.3-3.4-5.9-5-1.6-1.6-2.9-2.9-3.8-3.9l-.3-.3c0-.1-.1-.2-.2-.2,0,0-.1,0-.2-.1,0-.1-.1-.2-.2-.2,0,0-.1,0-.2-.1-1.3-1.5-2-2.6-2-3.5s.7-2.1,2-3.3l15.1-14.4c1.2-.9,2.2-1.3,3-1.3s1.1.2,1.7.5c.6.3,1.3.9,2.1,1.6Z"/>
    <path class="st0" d="M843.1,669.6c0-.3.3-.7.6-1.1.3-.4.7-.8,1.2-1.1.5-.3,1-.6,1.5-.8.5-.2,1-.3,1.5-.3h22.3c1,0,1.8.3,2.5.9.7.6,1.2,1.2,1.6,1.6l2.2,5,45.8,118.1c.5,1.2.4,2.1-.3,2.8-.6.7-1.7,1.1-3.3,1.1h-25c-1.3,0-2.4-.3-3.1-.8-.7-.5-1.3-1.3-1.7-2.5-1.2-3-2.3-5.9-3.4-8.9-1.1-2.9-2.2-5.9-3.3-8.9h-46.3c-1.1,3-2.2,5.9-3.3,8.9-1.1,2.9-2.3,5.9-3.4,8.9-.8,2.1-2.2,3.2-4.4,3.2h-25.7c-1.1,0-2-.3-2.7-.9-.7-.6-.9-1.5-.4-2.6l47.4-122.6ZM859,707c-1.1,3-2.2,6.2-3.4,9.6-1.1,3.4-2.2,6.9-3.3,10.4-1.1,3.5-2.2,6.9-3.4,10.3-1.1,3.4-2.3,6.6-3.4,9.5h26.8l-13.3-39.8Z"/>
  </g>
</svg>