<?xml version="1.0" encoding="UTF-8"?>
<svg id="Capa_1" xmlns="http://www.w3.org/2000/svg" version="1.1" viewBox="0 0 1021.7 1021.7">
  <!-- Generator: Adobe Illustrator 30.5.1, SVG Export Plug-In . SVG Version: 2.1.4 Build 3)  -->
  <defs>
    <style>
      .st0 {
        fill: #1d1d1b;
      }

      .st1 {
        fill: #fff;
      }
    </style>
  </defs>
  <path class="st0" d="M0,510.9C0,228.7,228.7,0,510.9,0s510.9,228.7,510.9,510.9-228.7,510.9-510.9,510.9S0,793,0,510.9Z"/>
  <g>
    <path class="st1" d="M378.3,485h0c12,57.4,35.5,121.9,59.7,174.1,19.9.8,42,1.2,65.9,1.2-56-80.9-111-264.1,7-264.1s63,183.1,7,264.1c24,0,46-.5,65.9-1.2,24.3-52.3,47.7-116.7,59.7-174.1h0c5.1-23.6,8-44.3,6.9-66.2,0,0,0,0,0,0-3.4-77.5-58.2-131.9-139.6-131.9s-136.2,54.2-139.6,131.9t0,0c-1,21.2,1.5,41,6.9,66.2Z"/>
    <path class="st1" d="M315.4,644.6l16.4,3.4c11.9,3,28.2,5.5,48.5,7.5-27.9-22.6-75.3-66.7-82-110.2-8.6-55.2,32.7-77,69.4-64.9-4.8-24.1-7.5-45.5-5.2-70.2-15-12.9-37.6-25-67.6-25s-97.5,18.6-82.2,110.2c10.1,60.4,66,117.5,102.7,149.4Z"/>
    <path class="st1" d="M727,385.1c-30,0-52.6,12.2-67.6,25,1.5,16.2,1,33.3-1.8,51-1,6.4-2.1,12.8-3.4,19.2,6.1-2,12.9-3.2,20.4-3.2,25.3,0,56.6,19,49,68.2-6.7,43.5-54.1,87.6-82.1,110.2,35.4-3.4,64.9-10.8,64.9-10.8,36.8-31.9,92.7-88.9,102.7-149.4,15.2-91.5-43.2-110.2-82.2-110.2Z"/>
    <path class="st1" d="M316.8,738.7c-.4-.6-.8-.9-1.2-.9-.4,0-.9,0-1.6.5-1.7,1.3-3.6,2.3-5.7,3-2.1.7-4.3,1.1-6.5,1.1s-5.5-.5-7.8-1.6c-2.4-1.1-4.5-2.5-6.2-4.4-1.7-1.8-3.1-4-4-6.5-1-2.5-1.5-5.1-1.5-8s.5-5.5,1.5-8c1-2.5,2.3-4.7,4-6.5,1.7-1.9,3.8-3.3,6.2-4.4,2.4-1.1,5-1.6,7.8-1.6s4.4.4,6.5,1c2,.7,3.9,1.7,5.6,3,.6.4,1.1.5,1.6.4.4,0,.8-.4,1.2-1l8.8-12.5c.4-.8.4-1.4.2-2-.3-.5-.7-1-1.3-1.3-3.3-2.2-6.7-3.9-10.4-5-3.7-1.2-7.6-1.7-11.8-1.7s-7.2.5-10.6,1.4c-3.4,1-6.5,2.3-9.5,4-2.9,1.7-5.6,3.8-8,6.2-2.4,2.4-4.5,5.1-6.2,8.1-1.7,3-3.1,6.1-4,9.5-.9,3.4-1.4,6.9-1.4,10.6s.5,7.2,1.4,10.6c.9,3.4,2.3,6.5,4,9.5,1.7,2.9,3.8,5.6,6.2,8,2.4,2.4,5.1,4.5,8,6.2,2.9,1.7,6.1,3.1,9.5,4,3.4.9,6.9,1.4,10.6,1.4s8.1-.6,11.9-1.8c3.7-1.2,7.3-2.9,10.5-5.1.6-.3,1-.8,1.3-1.3.3-.5.2-1.2-.2-1.9l-8.9-12.8Z"/>
    <path class="st1" d="M398.8,701.9c-1.7-3-3.8-5.6-6.2-8.1-2.4-2.4-5.1-4.5-8.1-6.2-2.9-1.7-6.1-3-9.5-4-3.4-.9-6.9-1.4-10.5-1.4s-7.2.5-10.6,1.4c-3.4,1-6.5,2.3-9.5,4-2.9,1.7-5.6,3.8-8,6.2-2.4,2.4-4.5,5.1-6.2,8.1-1.7,3-3.1,6.1-4,9.5-.9,3.4-1.4,6.9-1.4,10.6s.5,7.2,1.4,10.6c.9,3.4,2.3,6.5,4,9.5,1.7,2.9,3.8,5.6,6.2,8,2.4,2.4,5.1,4.5,8,6.2,2.9,1.7,6.1,3.1,9.5,4,3.4.9,6.9,1.4,10.6,1.4s7.1-.5,10.5-1.4c3.4-.9,6.6-2.3,9.5-4,2.9-1.7,5.6-3.8,8.1-6.2,2.4-2.4,4.5-5.1,6.2-8,1.7-2.9,3-6.1,4-9.5,1-3.4,1.4-6.9,1.4-10.6s-.5-7.2-1.4-10.6c-1-3.4-2.3-6.5-4-9.5ZM382.7,730c-1,2.5-2.3,4.7-4.1,6.5-1.7,1.8-3.8,3.3-6.2,4.4-2.4,1-5,1.6-7.9,1.6s-5.5-.5-7.9-1.6c-2.4-1.1-4.5-2.5-6.2-4.4-1.8-1.9-3.1-4-4.1-6.5-1-2.5-1.5-5.2-1.5-8s.5-5.5,1.5-8c1-2.5,2.3-4.7,4.1-6.6,1.7-1.9,3.8-3.3,6.2-4.4,2.4-1.1,5-1.6,7.9-1.6s5.5.5,7.9,1.6c2.4,1.1,4.5,2.5,6.2,4.4,1.7,1.9,3.1,4.1,4.1,6.6,1,2.5,1.4,5.2,1.4,8s-.5,5.5-1.4,8Z"/>
    <path class="st1" d="M476.4,683.4h-14.8c-.6,0-1,.2-1.5.5-.4.4-.7.8-.8,1.5v41.6c-4.4-7.1-8.8-14.1-13.1-21-4.3-6.9-8.7-13.9-13.1-21-.4-.6-.8-1-1.4-1.2-.5-.2-1-.4-1.5-.4h-17c-.8,0-1.3.2-1.7.7-.4.4-.6,1-.6,1.6v72.6c0,.6.2,1.1.5,1.6s.9.6,1.7.6h14.7c.9,0,1.5-.2,1.9-.6.3-.4.5-1,.5-1.7v-44.6c4.6,7.6,9.2,15.1,13.7,22.6,4.5,7.4,9,15,13.6,22.6.4.5.7.9,1.1,1.2.3.3.7.5,1.2.5h16.6c.7,0,1.3-.2,1.7-.5.4-.3.6-.8.6-1.5v-72.8c0-.7-.2-1.3-.7-1.7-.5-.4-1.1-.6-1.8-.6Z"/>
    <path class="st1" d="M551.1,702.2c-1.7-2.9-3.8-5.5-6.2-7.8-2.4-2.3-5.1-4.3-8-6-2.9-1.6-6.1-2.9-9.4-3.8-3.4-.9-6.9-1.4-10.5-1.4h-25.6c-.8,0-1.4.2-1.8.7-.4.4-.6,1-.6,1.8v72.5c0,.9.2,1.5.7,1.8.5.3,1,.4,1.7.4h25.6c3.6,0,7.1-.4,10.5-1.3,3.4-.9,6.5-2.1,9.5-3.8,2.9-1.6,5.6-3.6,8-5.9,2.4-2.3,4.5-4.9,6.2-7.8,1.7-2.8,3.1-5.9,4-9.2.9-3.3,1.4-6.8,1.4-10.5s-.5-7.1-1.4-10.4c-1-3.3-2.3-6.4-4-9.3ZM535.1,729.5c-1,2.3-2.3,4.3-3.9,6.1-1.7,1.7-3.6,3.1-5.9,4.2-2.3,1-4.7,1.7-7.3,1.9-.7,0-1.5.1-2.3.2-.8,0-1.5,0-2.3,0h-4.4v-39.9h6.8c2.8,0,5.5.5,8,1.5,2.5,1,4.7,2.4,6.6,4.1,1.9,1.8,3.3,3.9,4.4,6.3,1.1,2.4,1.6,5.1,1.6,8s-.5,5.3-1.4,7.6Z"/>
    <path class="st1" d="M618.9,742.6h-34.9v-13.3h26c.7,0,1.3-.2,1.7-.7.4-.4.6-.9.6-1.4v-11.2c0-.7-.2-1.2-.7-1.6-.4-.3-1-.5-1.6-.5h-26v-12.9h33.6c.8,0,1.4-.3,1.8-.8.4-.5.6-1.1.6-1.7v-12.8c0-.8-.2-1.4-.6-1.8-.4-.5-1-.7-1.8-.7h-51.5c-.7,0-1.3.2-1.7.6-.4.4-.6,1-.6,1.7v72.5c0,.8.2,1.3.6,1.7.4.4,1,.5,1.7.5h52.5c1.3,0,2-.5,2.1-1.4.3-.3.4-.6.4-.9v-13c0-1.6-.8-2.4-2.3-2.4Z"/>
    <path class="st1" d="M676.4,720.6c-2.2-1.8-4.9-3.4-8-4.7-3.1-1.3-6.5-2.6-10.1-3.8-1.9-.6-3.6-1.2-5-1.7-1.4-.5-2.6-1.1-3.6-1.7-1-.6-1.7-1.3-2.2-2-.5-.7-.7-1.5-.7-2.5s.2-1.8.7-2.5c.4-.7,1.1-1.2,1.8-1.6.8-.4,1.6-.7,2.6-.9,1-.2,2.1-.3,3.2-.3s2.2.2,3.3.5c1.1.3,2.1.7,3,1.2,1,.5,1.9,1.1,2.7,1.7.8.6,1.6,1.2,2.3,1.8l.5.4c.5.4.9.8,1.3,1,.4.3.8.4,1.3.4s1.2-.3,1.8-.9l7.9-8.5c.5-.5.8-.9,1-1.3.2-.4.3-.8.3-1.3s-.2-1-.7-1.6c-.5-.6-1.1-1.3-1.9-2-.8-.7-1.7-1.4-2.8-2.2-1-.7-2.2-1.5-3.3-2.2-2.8-1.5-5.7-2.7-8.6-3.4-2.9-.7-5.9-1.1-9.1-1.1s-8,.5-11.4,1.5c-3.4,1-6.3,2.4-8.7,4.3-2.4,1.9-4.3,4.1-5.6,6.7-1.3,2.6-1.9,5.5-1.9,8.8s.5,5.8,1.6,8.3c1,2.5,2.6,4.7,4.7,6.8,2.1,2.1,4.7,3.9,7.8,5.6,3.1,1.7,6.7,3.2,10.9,4.7.9.3,2,.7,3.3,1.2,1.3.5,2.5,1,3.7,1.7,1.2.7,2.2,1.4,3,2.3.8.9,1.2,1.8,1.2,2.9s-.2,1.9-.4,2.8c-.3.9-.8,1.6-1.5,2.3-.7.7-1.6,1.2-2.8,1.6-1.2.4-2.7.6-4.4.6s-3.7-.3-5.4-1c-1.7-.6-3.5-1.6-5.2-2.7-1.2-.8-2.2-1.6-3.1-2.4-.9-.8-1.7-1.5-2.3-1.9-.5-.4-.9-.7-1.3-.9-.3-.2-.7-.3-1-.3-.5,0-1,.3-1.8.8l-9,8.6c-.8.7-1.2,1.4-1.2,2s.4,1.2,1.2,2.1c0,0,0,0,0,0,0,0,0,0,.1.1,0,0,0,0,.1,0,0,0,0,0,.1.1l.2.2c.6.6,1.3,1.4,2.3,2.3,1,1,2.1,2,3.5,3,3.3,2.4,6.9,4.3,10.7,5.7,3.8,1.4,7.8,2.1,11.7,2.1s8.2-.6,11.8-1.8c3.7-1.2,6.9-2.9,9.6-5,2.7-2.2,4.9-4.8,6.4-7.9,1.6-3.1,2.3-6.6,2.3-10.4s-.6-6.7-1.9-9.2c-1.3-2.5-3-4.7-5.3-6.5Z"/>
    <path class="st1" d="M731.8,687.8l-1.3-3c-.2-.3-.5-.6-.9-1-.4-.4-.9-.5-1.5-.5h-13.3c-.3,0-.6,0-.9.2-.3.1-.6.3-.9.5-.3.2-.5.4-.7.7-.2.3-.3.5-.3.7l-28.2,73c-.3.7-.2,1.2.2,1.6.4.3,1,.5,1.6.5h15.3c1.3,0,2.2-.6,2.6-1.9.7-1.8,1.3-3.5,2-5.3.7-1.7,1.3-3.5,2-5.3h27.6c.6,1.8,1.3,3.5,2,5.3.7,1.8,1.3,3.5,2,5.3.2.7.6,1.2,1,1.5.4.3,1,.4,1.8.4h14.9c.9,0,1.6-.2,2-.6.4-.4.4-1,.2-1.7l-27.3-70.3ZM713.4,731.3c.7-1.8,1.3-3.7,2-5.7.7-2,1.3-4.1,2-6.2.7-2.1,1.3-4.1,2-6.2.7-2,1.3-3.9,2-5.7l7.9,23.7h-15.9Z"/>
  </g>
</svg>