<?xml version="1.0" encoding="UTF-8"?>
<svg id="Capa_1" xmlns="http://www.w3.org/2000/svg" version="1.1" viewBox="0 0 1020.7 52.5">
  <!-- Generator: Adobe Illustrator 30.5.1, SVG Export Plug-In . SVG Version: 2.1.4 Build 3)  -->
  <defs>
    <style>
      .st0 {
        fill: #f1f1f1;
      }
    </style>
  </defs>
  <path class="st0" d="M58.3,50.8l7.9-39.7h5.7l-7,34.8h21.5l-1,4.9h-27.2Z"/>
  <path class="st0" d="M104,51.1c-2.5,0-4.8-.5-6.8-1.6-2-1-3.6-2.5-4.7-4.5-1.2-1.9-1.7-4.3-1.7-7s.4-4.9,1.3-7.1c.9-2.2,2-4,3.6-5.6,1.5-1.6,3.3-2.8,5.4-3.7,2.1-.9,4.3-1.3,6.7-1.3s4.8.5,6.6,1.4,3.2,2.2,4.2,4c1,1.8,1.5,3.9,1.5,6.4,0,3.7-.6,7-1.9,9.8-1.3,2.9-3.1,5.1-5.5,6.7-2.4,1.6-5.3,2.4-8.6,2.4ZM105.2,46.3c2.3,0,4.3-.5,6.1-1.6,1.8-1.1,3.2-2.6,4.2-4.5,1-1.9,1.5-4.1,1.5-6.6s-.8-4.7-2.3-6.2c-1.6-1.5-3.8-2.2-6.6-2.2s-4.2.5-6,1.6c-1.8,1.1-3.2,2.6-4.2,4.5-1,1.9-1.5,4.1-1.5,6.6s.8,4.7,2.3,6.2c1.5,1.5,3.8,2.3,6.6,2.3ZM113.9,50.8l1.6-7.8,1.8-7,.7-7.1,1.6-8.2h5.4l-6,30.1h-5.2Z"/>
  <path class="st0" d="M148.3,50.8V1.4h13.8l19.8,32.2h-7.2L194,1.4h13.8v49.3c.1,0-15.1,0-15.1,0v-26.5c-.1,0,2.3,0,2.3,0l-13.2,22.1h-7.4l-13.8-22.1h3v26.5h-15.2Z"/>
  <path class="st0" d="M210.6,50.8L232.3,1.1h16.4l21.7,49.6h-17.3l-16-41.7h6.5l-16,41.7h-17ZM223.5,42.1l4.3-12.1h22.8l4.3,12.1h-31.3Z"/>
  <path class="st0" d="M273.1,50.8V1.1h13.8l25.2,30.2h-6.4V1.1h16.3v49.6h-13.8l-25.2-30.2h6.4v30.2h-16.3Z"/>
  <path class="st0" d="M348.6,51.9c-4.2,0-8.2-.5-12.1-1.4-3.9-.9-7.1-2.2-9.6-3.7l5.4-12.2c2.4,1.4,5,2.5,7.9,3.3,2.9.8,5.7,1.2,8.5,1.2s2.9-.1,3.8-.3c.9-.2,1.6-.5,2-.9.4-.4.6-.9.6-1.5,0-.9-.5-1.6-1.5-2.1-1-.5-2.3-1-3.9-1.3-1.6-.4-3.4-.7-5.4-1.1-1.9-.4-3.9-.9-5.8-1.6-2-.7-3.8-1.5-5.4-2.6-1.6-1.1-2.9-2.5-3.9-4.3s-1.5-4-1.5-6.6.9-5.9,2.6-8.4c1.7-2.5,4.3-4.5,7.7-6.1,3.4-1.5,7.7-2.3,12.8-2.3s6.7.4,9.9,1.1c3.3.7,6.2,1.8,8.8,3.3l-5,12.1c-2.5-1.2-4.8-2.2-7.1-2.8-2.3-.6-4.5-.9-6.7-.9s-2.9.1-3.8.4c-.9.3-1.6.7-2,1.1-.4.5-.6,1-.6,1.6,0,.9.5,1.5,1.5,2s2.3.9,3.9,1.2c1.6.3,3.4.7,5.4,1.1,2,.4,3.9.9,5.8,1.6,1.9.7,3.7,1.5,5.4,2.6,1.6,1.1,2.9,2.5,3.9,4.3,1,1.7,1.5,3.9,1.5,6.5s-.9,5.8-2.6,8.3c-1.7,2.5-4.3,4.6-7.7,6.1-3.4,1.5-7.7,2.3-12.8,2.3Z"/>
  <path class="st0" d="M376.7,50.8V1.1h16.7v49.6h-16.7Z"/>
  <path class="st0" d="M427.6,51.9c-4.1,0-7.8-.6-11.2-1.9-3.4-1.3-6.4-3.1-8.9-5.4-2.5-2.3-4.5-5.1-5.8-8.3-1.4-3.2-2.1-6.6-2.1-10.3s.7-7.2,2.1-10.4c1.4-3.1,3.3-5.9,5.8-8.2s5.5-4.1,8.9-5.4c3.4-1.3,7.1-1.9,11.2-1.9s7.8.6,11.2,1.9,6.4,3.1,8.9,5.4,4.5,5.1,5.8,8.2c1.4,3.1,2.1,6.6,2.1,10.4s-.7,7.2-2.1,10.3c-1.4,3.2-3.3,5.9-5.8,8.3-2.5,2.3-5.5,4.1-8.9,5.4-3.4,1.3-7.1,1.9-11.1,1.9ZM427.5,38.4c1.6,0,3-.3,4.4-.9s2.5-1.4,3.5-2.4c1-1.1,1.8-2.4,2.4-3.9.6-1.5.9-3.3.9-5.2s-.3-3.7-.9-5.2c-.6-1.5-1.4-2.8-2.4-3.9-1-1.1-2.2-1.9-3.5-2.4s-2.8-.9-4.4-.9-3,.3-4.4.9-2.5,1.4-3.5,2.4c-1,1.1-1.8,2.4-2.4,3.9-.6,1.5-.9,3.3-.9,5.2s.3,3.7.9,5.2c.6,1.5,1.4,2.8,2.4,3.9,1,1.1,2.2,1.9,3.5,2.4,1.3.6,2.8.9,4.4.9Z"/>
  <path class="st0" d="M461.6,50.8V1.1h13.8l25.2,30.2h-6.4V1.1h16.3v49.6h-13.8l-25.2-30.2h6.4v30.2h-16.3Z"/>
  <path class="st0" d="M542.9,51.7c-2.9,0-5.5-.5-7.7-1.6-2.2-1.1-3.8-2.6-5-4.5-1.2-1.9-1.8-4.2-1.8-6.9s.7-6.4,2.2-9.1c1.5-2.6,3.5-4.7,6-6.3,2.6-1.5,5.5-2.3,8.7-2.3s5.1.5,7.1,1.6,3.6,2.5,4.7,4.5c1.1,1.9,1.7,4.3,1.7,7s0,1.4-.1,2.1c0,.7-.2,1.4-.3,2h-26l.7-4h22.7l-2.2,1.4c.3-2.1.2-3.9-.5-5.4-.6-1.5-1.7-2.6-3-3.3s-3-1.2-5-1.2-4.3.5-6,1.6-3.1,2.6-4,4.5c-.9,1.9-1.4,4.1-1.4,6.7s.8,4.8,2.4,6.3c1.6,1.5,4,2.2,7.2,2.2s3.6-.3,5.3-.9c1.6-.6,3-1.5,4-2.5l2.3,3.9c-1.4,1.4-3.2,2.5-5.4,3.2-2.2.7-4.4,1.1-6.7,1.1Z"/>
  <path class="st0" d="M572.6,51.7c-2.5,0-4.9-.3-7.2-1-2.2-.7-4-1.5-5.2-2.5l2.4-4.3c1.2.9,2.7,1.6,4.6,2.2,1.9.6,3.8.9,5.9.9s4.6-.4,5.9-1.2,2-1.9,2-3.2-.4-1.7-1.2-2.2c-.8-.5-1.8-.9-3.1-1.2-1.3-.3-2.6-.6-4.1-.9-1.4-.3-2.8-.7-4-1.2-1.2-.5-2.3-1.3-3.1-2.3-.8-1-1.2-2.3-1.2-4s.6-3.7,1.7-5.2,2.7-2.6,4.8-3.4c2-.8,4.4-1.2,7.1-1.2s3.9.2,5.8.7c1.9.5,3.5,1.1,4.7,2l-2.2,4.3c-1.2-.9-2.6-1.5-4.2-1.8-1.6-.4-3.1-.5-4.7-.5-2.5,0-4.4.4-5.7,1.3-1.3.9-1.9,1.9-1.9,3.2s.4,1.7,1.2,2.3,1.8,1,3.1,1.3c1.3.3,2.6.6,4,.9,1.4.3,2.8.7,4,1.2s2.3,1.2,3.1,2.2,1.2,2.3,1.2,3.9-.6,3.8-1.7,5.3c-1.2,1.5-2.8,2.6-4.8,3.3-2.1.8-4.5,1.1-7.2,1.1Z"/>
  <path class="st0" d="M592.3,25.8l.9-4.5h19.2l-.9,4.5h-19.2ZM601.9,51.7c-1.8,0-3.4-.4-4.7-1.2-1.3-.8-2.2-1.9-2.8-3.4-.5-1.5-.6-3.2-.3-5.2l5.4-27.2h5.4l-5.4,27.1c-.3,1.6-.1,2.9.5,3.9.6,1,1.7,1.4,3.3,1.4s1.5-.1,2.3-.4c.8-.2,1.4-.6,2-1l1.1,4.1c-1,.7-2.1,1.2-3.4,1.5-1.2.3-2.4.4-3.6.4Z"/>
  <path class="st0" d="M627.2,51.7c-2.5,0-4.8-.5-6.8-1.6-2-1-3.6-2.5-4.7-4.5-1.2-1.9-1.7-4.3-1.7-7s.4-4.9,1.3-7.1c.9-2.2,2-4,3.6-5.6,1.5-1.6,3.3-2.8,5.4-3.7,2.1-.9,4.3-1.3,6.7-1.3s4.8.5,6.6,1.4c1.8.9,3.2,2.2,4.2,4s1.5,3.9,1.5,6.4c0,3.7-.6,7-1.9,9.8-1.3,2.9-3.1,5.1-5.5,6.7-2.4,1.6-5.3,2.4-8.6,2.4ZM628.4,47c2.3,0,4.3-.5,6.1-1.6,1.8-1.1,3.2-2.6,4.2-4.5,1-1.9,1.5-4.1,1.5-6.6s-.8-4.7-2.3-6.2c-1.6-1.5-3.8-2.2-6.6-2.2s-4.2.5-6,1.6c-1.8,1.1-3.2,2.6-4.2,4.5-1,1.9-1.5,4.1-1.5,6.6s.8,4.7,2.3,6.2c1.5,1.5,3.8,2.3,6.6,2.3ZM637.1,51.4l1.6-7.8,1.8-7,.7-7.1,1.6-8.2h5.4l-6,30.1h-5.2Z"/>
  <path class="st0" d="M681.2,51.7c-2.5,0-4.8-.5-6.8-1.6-2-1-3.6-2.5-4.7-4.5-1.2-1.9-1.7-4.3-1.7-7s.4-4.9,1.3-7.1c.9-2.2,2-4,3.6-5.6,1.5-1.6,3.3-2.8,5.4-3.7,2.1-.9,4.3-1.3,6.7-1.3s4.8.5,6.6,1.4c1.8.9,3.2,2.2,4.2,4s1.5,3.9,1.5,6.4-.4,5.4-1.1,7.7c-.7,2.3-1.8,4.3-3.2,6-1.4,1.7-3.1,3-5.1,3.9-2,.9-4.2,1.4-6.7,1.4ZM682.4,47c2.3,0,4.3-.5,6.1-1.6,1.8-1.1,3.2-2.6,4.2-4.5,1-1.9,1.5-4.1,1.5-6.6s-.8-4.7-2.3-6.2c-1.6-1.5-3.8-2.2-6.6-2.2s-4.2.5-6,1.6c-1.8,1.1-3.2,2.6-4.2,4.5-1,1.9-1.5,4.1-1.5,6.6s.8,4.7,2.3,6.2c1.5,1.5,3.8,2.3,6.6,2.3ZM691,51.4l1.6-7.8,1.8-7,.8-7.1,4-20.2h5.4l-8.4,42.1h-5.2Z"/>
  <path class="st0" d="M721,51.7c-2.9,0-5.5-.5-7.7-1.6s-3.8-2.6-5-4.5c-1.2-1.9-1.8-4.2-1.8-6.9s.7-6.4,2.2-9.1c1.5-2.6,3.5-4.7,6-6.3,2.6-1.5,5.5-2.3,8.7-2.3s5.1.5,7.1,1.6,3.6,2.5,4.7,4.5c1.1,1.9,1.7,4.3,1.7,7s0,1.4-.1,2.1c0,.7-.2,1.4-.3,2h-26l.7-4h22.7l-2.2,1.4c.3-2.1.2-3.9-.5-5.4-.6-1.5-1.7-2.6-3-3.3s-3-1.2-5-1.2-4.3.5-6,1.6-3.1,2.6-4,4.5c-.9,1.9-1.4,4.1-1.4,6.7s.8,4.8,2.4,6.3c1.6,1.5,4,2.2,7.2,2.2s3.6-.3,5.3-.9c1.6-.6,3-1.5,4-2.5l2.3,3.9c-1.4,1.4-3.2,2.5-5.4,3.2-2.2.7-4.4,1.1-6.7,1.1Z"/>
  <path class="st0" d="M775.1,51.4h-16.7V1.8h40.3v12.6h-23.6v37ZM774,22.9h21.8v12.6h-21.8v-12.6Z"/>
  <path class="st0" d="M804,51.4V1.8h16.7v49.6h-16.7Z"/>
  <path class="st0" d="M845.3,38.8h24.8v12.6h-41.3V1.8h40.3v12.6h-23.9v24.4ZM844.1,20.2h22.1v12.1h-22.1v-12.1Z"/>
  <path class="st0" d="M895,52.5c-4.2,0-8.2-.5-12.1-1.4-3.9-.9-7.1-2.2-9.6-3.7l5.4-12.2c2.4,1.4,5,2.5,7.9,3.3,2.9.8,5.7,1.2,8.5,1.2s2.9-.1,3.8-.3c.9-.2,1.6-.5,2-.9s.6-.9.6-1.5c0-.9-.5-1.6-1.5-2.1-1-.5-2.3-1-3.9-1.3-1.6-.4-3.4-.7-5.4-1.1-1.9-.4-3.9-.9-5.8-1.6-2-.7-3.8-1.5-5.4-2.6-1.6-1.1-2.9-2.5-3.9-4.3s-1.5-4-1.5-6.6.9-5.9,2.6-8.4c1.7-2.5,4.3-4.5,7.7-6.1,3.4-1.5,7.7-2.3,12.8-2.3s6.7.4,9.9,1.1c3.3.7,6.2,1.8,8.8,3.3l-5,12.1c-2.5-1.2-4.8-2.1-7.1-2.8-2.3-.6-4.5-.9-6.7-.9s-2.9.1-3.8.4-1.6.7-2,1.1c-.4.5-.6,1-.6,1.6,0,.9.5,1.5,1.5,2s2.3.9,3.9,1.2c1.6.3,3.4.7,5.4,1.1,2,.4,3.9.9,5.8,1.6,1.9.7,3.7,1.5,5.4,2.6s2.9,2.5,3.9,4.3c1,1.7,1.5,3.9,1.5,6.5s-.9,5.8-2.6,8.3c-1.7,2.5-4.3,4.6-7.7,6.1-3.4,1.5-7.7,2.3-12.8,2.3Z"/>
  <path class="st0" d="M933.2,51.4V14.8h-14.5V1.8h45.8v13h-14.5v36.6h-16.7Z"/>
  <path class="st0" d="M960.9,51.4l21.7-49.6h16.4l21.7,49.6h-17.3l-16-41.7h6.5l-16,41.7h-17ZM973.8,42.8l4.3-12.1h22.8l4.3,12.1h-31.3Z"/>
  <path class="st0" d="M0,38.8l1.3-6.4h44.5l-1.3,6.4H0ZM5.6,50.8L21.4,1.4h6.6l-15.8,49.4h-6.6ZM6.1,19.8l1.2-6.4h44.6l-1.3,6.4H6.1ZM23.9,50.8L39.7,1.4h6.6l-15.8,49.4h-6.6Z"/>
</svg>